<svg xmlns="http://www.w3.org/2000/svg" width="218.669" height="121.373" viewBox="0 0 218.669 121.373">
  <defs>
    <style>
      .cls-1, .cls-2 {
        fill: #009fe3;
      }

      .cls-1 {
        opacity: 0.5;
      }
    </style>
  </defs>
  <g id="Gruppe_3" data-name="Gruppe 3" transform="translate(-530.425 -362.487)">
    <g id="Gruppe_2" data-name="Gruppe 2">
      <path id="Pfad_278" data-name="Pfad 278" class="cls-1" d="M201.761,650.105a39.349,39.349,0,0,0,23.423,7.659c21.461,0,38.863-16.985,38.863-37.932s-17.4-37.932-38.863-37.932a39.37,39.37,0,0,0-23.795,7.94L154.78,619.832Z" transform="translate(375.645 -173.904)"/>
      <path id="Pfad_279" data-name="Pfad 279" class="cls-2" d="M199.557,638.318a29.1,29.1,0,0,0,17.318,5.662c15.863,0,28.733-12.562,28.733-28.045s-12.87-28.045-28.733-28.045a29.023,29.023,0,0,0-17.588,5.876L164.82,615.935Z" transform="translate(382.584 -170.007)"/>
    </g>
    <path id="Pfad_282" data-name="Pfad 282" class="cls-1" d="M146.451,622.535a39.348,39.348,0,0,0,23.423,7.659c21.461,0,38.863-16.985,38.863-37.932s-17.4-37.932-38.863-37.932a39.369,39.369,0,0,0-23.795,7.94L99.47,592.262Z" transform="translate(540.357 -191.843)"/>
    <path id="Pfad_283" data-name="Pfad 283" class="cls-2" d="M144.247,610.748a29.1,29.1,0,0,0,17.318,5.662c15.863,0,28.733-12.562,28.733-28.045s-12.87-28.045-28.733-28.045a29.023,29.023,0,0,0-17.588,5.876L109.51,588.365Z" transform="translate(547.296 -187.946)"/>
  </g>
</svg>
