<svg xmlns="http://www.w3.org/2000/svg" width="74.489" height="56.212" viewBox="0 0 74.489 56.212">
  <defs>
    <style>
      .cls-1, .cls-2 {
        fill: #009fe3;
      }

      .cls-1 {
        opacity: 0.5;
      }

      .cls-3 {
        fill: #fff;
      }
    </style>
  </defs>
  <g id="Gruppe_2" data-name="Gruppe 2" transform="translate(-530.425 -315.525)">
    <path id="Pfad_280" data-name="Pfad 280" class="cls-1" d="M170.784,548.656a13.584,13.584,0,0,0,7.979,2.558c7.311,0,13.239-5.672,13.239-12.667s-5.928-12.667-13.239-12.667a13.589,13.589,0,0,0-8.106,2.651L154.78,538.547Z" transform="translate(375.645 -210.355)"/>
    <path id="Pfad_281" data-name="Pfad 281" class="cls-2" d="M176.653,548.709a10.047,10.047,0,0,0,5.9,1.891,9.374,9.374,0,1,0,0-18.73,10.017,10.017,0,0,0-5.991,1.962l-11.741,7.4Z" transform="translate(371.389 -213.043)"/>
    <ellipse id="Ellipse_594" data-name="Ellipse 594" class="cls-3" cx="4.142" cy="3.963" rx="4.142" ry="3.963" transform="translate(550.525 324.229)"/>
    <path id="Pfad_278" data-name="Pfad 278" class="cls-1" d="M170.784,604.676a13.585,13.585,0,0,0,7.979,2.558c7.311,0,13.239-5.672,13.239-12.667S186.073,581.9,178.763,581.9a13.589,13.589,0,0,0-8.106,2.651L154.78,594.567Z" transform="translate(375.645 -235.496)"/>
    <path id="Pfad_279" data-name="Pfad 279" class="cls-2" d="M176.653,604.729a10.047,10.047,0,0,0,5.9,1.891,9.374,9.374,0,1,0,0-18.73,10.017,10.017,0,0,0-5.991,1.962l-11.741,7.4Z" transform="translate(371.389 -238.184)"/>
    <path id="Pfad_282" data-name="Pfad 282" class="cls-1" d="M115.474,577.106a13.584,13.584,0,0,0,7.979,2.558c7.311,0,13.239-5.672,13.239-12.667s-5.928-12.667-13.239-12.667a13.589,13.589,0,0,0-8.106,2.651L99.47,567Z" transform="translate(468.222 -223.123)"/>
    <path id="Pfad_283" data-name="Pfad 283" class="cls-2" d="M121.343,577.159a10.047,10.047,0,0,0,5.9,1.891,9.374,9.374,0,1,0,0-18.73,10.017,10.017,0,0,0-5.991,1.962l-11.741,7.4Z" transform="translate(463.966 -225.811)"/>
  </g>
</svg>
